<?xml version="1.0" encoding="utf-8"?>
<!-- Generator: Adobe Illustrator 27.5.0, SVG Export Plug-In . SVG Version: 6.00 Build 0)  -->
<svg version="1.1" id="Layer_1" xmlns="http://www.w3.org/2000/svg" xmlns:xlink="http://www.w3.org/1999/xlink" x="0px" y="0px"
	 viewBox="0 0 4000 4000" style="enable-background:new 0 0 4000 4000;" xml:space="preserve">
<g>
	<rect style="fill-rule:evenodd;clip-rule:evenodd;fill:#FFFFFF;" width="4000" height="4000"/>
	<path style="fill-rule:evenodd;clip-rule:evenodd;" d="M1712.909,2719.672c26.5-62.953,54.047-145.918,65.953-238.516
		c26.182-203.632,0-353.448-114.912-414.54c-114.908-61.09-349.087-13.09-395.631,37.82c-46.54,50.91-97.45-91.635,123.633-111.996
		c0,0-55.272-36.368-141.085-30.548c-85.82,5.815-200.722,13.095-156.365-42.175c44.358-55.275,244.362-29.83,315.633-11.645
		c0,0-103.988-29.812-186.896-114.175c-82.913-84.368-33.458-113.457,53.815-55.277c87.273,58.182,177.453,136.73,264.723,151.272
		c0,0-98.91-56.727-146.907-142.545c-48-85.815-32.002-141.09,82.91-36.363c114.907,104.73,132.363,154.185,248.725,152.73
		c116.358-1.46-49.45-113.462-104.722-181.818c-55.265-68.363-34.908-126.548-10.18-171.638c0,0,74.192,106.172,136.733,143.99
		c62.547,37.82,222.558,187.627,228.378,577.432c2.665,178.555,7.772,352.195,12.525,487.995H1712.909z"/>
	<path style="fill-rule:evenodd;clip-rule:evenodd;" d="M2287.067,2719.672c-26.5-62.953-54.048-145.918-65.953-238.516
		c-26.183-203.632,0-353.448,114.912-414.54c114.906-61.09,349.086-13.09,395.632,37.82c46.545,50.91,97.455-91.635-123.633-111.996
		c0,0,55.272-36.368,141.09-30.548c85.813,5.815,200.717,13.095,156.358-42.175c-44.356-55.275-244.355-29.83-315.631-11.645
		c0,0,103.988-29.812,186.902-114.175c82.908-84.368,33.453-113.457-53.82-55.277c-87.27,58.182-177.45,136.73-264.723,151.272
		c0,0,98.91-56.727,146.91-142.545c47.995-85.815,31.998-141.09-82.913-36.363c-114.907,104.73-132.363,154.185-248.722,152.73
		c-116.362-1.46,49.452-113.462,104.717-181.818c55.271-68.363,34.913-126.548,10.182-171.638c0,0-74.192,106.172-136.733,143.99
		c-62.542,37.82-222.558,187.627-228.378,577.432c-2.665,178.555-7.767,352.195-12.525,487.995H2287.067z"/>
	<path style="fill-rule:evenodd;clip-rule:evenodd;" d="M976.913,1671.473c46.885-14.873,100.238-3.723,137.418,33.462
		c33.677,33.677,45.997,80.618,36.973,124.002l-108.401-91.473l91.475,108.402c-43.39,9.028-90.332-3.293-124.007-36.973
		C973.19,1771.709,962.041,1718.358,976.913,1671.473"/>
	<path style="fill-rule:evenodd;clip-rule:evenodd;" d="M1134.051,1494.236c46.885-14.873,100.233-3.723,137.42,33.463
		c33.675,33.675,45.997,80.617,36.968,124.002l-108.402-91.475l91.473,108.402c-43.383,9.028-90.327-3.293-124.002-36.973
		C1130.328,1594.473,1119.179,1541.121,1134.051,1494.236"/>
	<path style="fill-rule:evenodd;clip-rule:evenodd;" d="M1365.321,1446.241c46.885-14.873,100.233-3.723,137.418,33.458
		c33.675,33.675,45.997,80.616,36.968,124.001l-108.401-91.475l91.475,108.401c-43.385,9.028-90.327-3.293-124.001-36.968
		C1361.598,1546.473,1350.448,1493.121,1365.321,1446.241"/>
	<path style="fill-rule:evenodd;clip-rule:evenodd;" d="M1011.146,2190.751c46.885,14.867,100.238,3.722,137.418-33.463
		c33.677-33.675,45.997-80.617,36.973-124.002l-108.402,91.473l91.475-108.401c-43.39-9.028-90.332,3.293-124.007,36.97
		C1007.423,2090.513,996.273,2143.866,1011.146,2190.751"/>
	<path style="fill-rule:evenodd;clip-rule:evenodd;" d="M824.276,1950.651c22.635,43.673,68.245,73.512,120.827,73.512
		c47.627,0,89.533-24.482,113.83-61.54l-141.335-11.972l141.335-11.967c-24.297-37.063-66.203-61.545-113.83-61.545
		C892.521,1877.139,846.911,1906.984,824.276,1950.651"/>
	<path style="fill-rule:evenodd;clip-rule:evenodd;" d="M1815.831,1325.518c-46.885-14.873-100.233-3.723-137.418,33.458
		c-33.677,33.675-45.998,80.617-36.97,124.002l108.402-91.475l-91.473,108.402c43.385,9.028,90.327-3.292,124.002-36.969
		C1819.554,1425.751,1830.703,1372.398,1815.831,1325.518"/>
	<path style="fill-rule:evenodd;clip-rule:evenodd;" d="M826.951,2188.214c29.233,9.273,62.508,2.323,85.695-20.863
		c21-21.005,28.682-50.278,23.055-77.33l-67.602,57.043l57.043-67.602c-27.057-5.627-56.328,2.055-77.328,23.055
		C824.626,2125.704,817.676,2158.979,826.951,2188.214"/>
	<path style="fill-rule:evenodd;clip-rule:evenodd;" d="M803.613,1710.751c29.233-9.275,62.503-2.32,85.69,20.867
		c21,21,28.687,50.273,23.055,77.33l-67.597-57.043l57.043,67.597c-27.057,5.632-56.33-2.055-77.33-23.055
		C801.288,1773.259,794.333,1739.99,803.613,1710.751"/>
	<path style="fill-rule:evenodd;clip-rule:evenodd;" d="M938.881,1491.118c29.24-9.273,62.508-2.325,85.697,20.863
		c21,21,28.682,50.272,23.055,77.328l-67.602-57.042l57.042,67.597c-27.052,5.631-56.323-2.05-77.328-23.055
		C936.556,1553.621,929.608,1520.353,938.881,1491.118"/>
	<path style="fill-rule:evenodd;clip-rule:evenodd;" d="M1174.756,1331.268c29.24-9.275,62.51-2.32,85.697,20.867
		c21,21,28.687,50.273,23.055,77.33l-67.597-57.043l57.043,67.597c-27.057,5.632-56.33-2.055-77.33-23.055
		C1172.438,1393.776,1165.483,1360.506,1174.756,1331.268"/>
	<path style="fill-rule:evenodd;clip-rule:evenodd;" d="M1501.043,1224.496c43.148,9.487,79.64,42.118,91.867,87.737
		c11.07,41.32-0.425,83.367-26.928,113.06l-43.243-119.835l22.47,125.4c-37.8-12.463-68.778-43.125-79.852-84.443
		C1453.133,1300.79,1468.421,1254.283,1501.043,1224.496"/>
	<path style="fill-rule:evenodd;clip-rule:evenodd;" d="M1746.377,1198.908c-29.235-9.273-62.508-2.32-85.697,20.868
		c-21,21-28.682,50.272-23.055,77.328l67.602-57.047l-57.043,67.602c27.058,5.632,56.33-2.055,77.33-23.055
		C1748.701,1261.416,1755.651,1228.148,1746.377,1198.908"/>
	<path style="fill-rule:evenodd;clip-rule:evenodd;" d="M1345.814,1266.718c30.637-1.393,60.977,13.932,77.37,42.33
		c14.85,25.725,14.698,55.985,2.258,80.665l-50.532-72.595l37.602,80.06c-27.59-1.568-53.877-16.563-68.727-42.283
		C1327.388,1326.496,1329.288,1292.556,1345.814,1266.718"/>
	<path style="fill-rule:evenodd;clip-rule:evenodd;" d="M981.785,1328.168c29.233-9.273,62.508-2.32,85.695,20.868
		c21,21,28.682,50.272,23.055,77.328l-67.602-57.047l57.043,67.602c-27.057,5.627-56.33-2.055-77.33-23.055
		C979.46,1390.676,972.51,1357.408,981.785,1328.168"/>
	<path style="fill-rule:evenodd;clip-rule:evenodd;" d="M1870.392,1519.209c-29.235-9.275-62.503-2.32-85.692,20.867
		c-21.003,21-28.687,50.273-23.055,77.33l67.597-57.048l-57.042,67.602c27.057,5.631,56.328-2.055,77.328-23.055
		C1872.718,1581.718,1879.671,1548.448,1870.392,1519.209"/>
	<path style="fill-rule:evenodd;clip-rule:evenodd;" d="M3023.082,1671.473c-46.885-14.873-100.238-3.723-137.418,33.462
		c-33.677,33.677-45.997,80.618-36.973,124.002l108.402-91.473l-91.475,108.402c43.39,9.028,90.331-3.293,124.007-36.973
		C3026.805,1771.709,3037.955,1718.358,3023.082,1671.473"/>
	<path style="fill-rule:evenodd;clip-rule:evenodd;" d="M2865.944,1494.236c-46.885-14.873-100.233-3.723-137.418,33.463
		c-33.677,33.675-45.998,80.617-36.97,124.002l108.402-91.475l-91.473,108.402c43.385,9.028,90.327-3.293,124.002-36.973
		C2869.667,1594.473,2880.815,1541.121,2865.944,1494.236"/>
	<path style="fill-rule:evenodd;clip-rule:evenodd;" d="M2634.674,1446.241c-46.885-14.873-100.231-3.723-137.418,33.458
		c-33.675,33.675-45.997,80.616-36.969,124.001l108.402-91.475l-91.475,108.401c43.385,9.028,90.326-3.293,124.001-36.968
		C2638.397,1546.473,2649.547,1493.121,2634.674,1446.241"/>
	<path style="fill-rule:evenodd;clip-rule:evenodd;" d="M2988.849,2190.751c-46.885,14.867-100.237,3.722-137.418-33.463
		c-33.675-33.675-45.997-80.617-36.973-124.002l108.402,91.473l-91.475-108.401c43.39-9.028,90.332,3.293,124.007,36.97
		C2992.572,2090.513,3003.722,2143.866,2988.849,2190.751"/>
	<path style="fill-rule:evenodd;clip-rule:evenodd;" d="M3175.719,1950.651c-22.635,43.673-68.245,73.512-120.827,73.512
		c-47.626,0-89.533-24.482-113.83-61.54l141.335-11.972l-141.335-11.967c24.297-37.063,66.203-61.545,113.83-61.545
		C3107.474,1877.139,3153.084,1906.984,3175.719,1950.651"/>
	<path style="fill-rule:evenodd;clip-rule:evenodd;" d="M2184.164,1325.518c46.885-14.873,100.233-3.723,137.42,33.458
		c33.675,33.675,45.997,80.617,36.968,124.002l-108.402-91.475l91.473,108.402c-43.383,9.028-90.325-3.292-124.001-36.969
		C2180.442,1425.751,2169.292,1372.398,2184.164,1325.518"/>
	<path style="fill-rule:evenodd;clip-rule:evenodd;" d="M3173.044,2188.214c-29.234,9.273-62.508,2.323-85.695-20.863
		c-21-21.005-28.682-50.278-23.055-77.33l67.602,57.043l-57.043-67.602c27.057-5.627,56.33,2.055,77.33,23.055
		C3175.369,2125.704,3182.319,2158.979,3173.044,2188.214"/>
	<path style="fill-rule:evenodd;clip-rule:evenodd;" d="M3196.384,1710.751c-29.235-9.275-62.505-2.32-85.692,20.867
		c-21,21-28.687,50.273-23.055,77.33l67.597-57.043l-57.043,67.597c27.057,5.632,56.33-2.055,77.33-23.055
		C3198.707,1773.259,3205.662,1739.99,3196.384,1710.751"/>
	<path style="fill-rule:evenodd;clip-rule:evenodd;" d="M3061.114,1491.118c-29.24-9.273-62.508-2.325-85.697,20.863
		c-21,21-28.682,50.272-23.055,77.328l67.602-57.042l-57.042,67.597c27.052,5.631,56.323-2.05,77.328-23.055
		C3063.439,1553.621,3070.387,1520.353,3061.114,1491.118"/>
	<path style="fill-rule:evenodd;clip-rule:evenodd;" d="M2825.239,1331.268c-29.24-9.275-62.51-2.32-85.697,20.867
		c-21,21-28.687,50.273-23.055,77.33l67.596-57.043l-57.042,67.597c27.057,5.632,56.328-2.055,77.328-23.055
		C2827.557,1393.776,2834.512,1360.506,2825.239,1331.268"/>
	<path style="fill-rule:evenodd;clip-rule:evenodd;" d="M2498.952,1224.496c-43.148,9.487-79.64,42.118-91.866,87.737
		c-11.07,41.32,0.425,83.367,26.928,113.06l43.243-119.835l-22.47,125.4c37.8-12.463,68.779-43.125,79.854-84.443
		C2546.862,1300.79,2531.574,1254.283,2498.952,1224.496"/>
	<path style="fill-rule:evenodd;clip-rule:evenodd;" d="M2253.617,1198.908c29.235-9.273,62.51-2.32,85.697,20.868
		c21,21,28.682,50.272,23.055,77.328l-67.602-57.047l57.044,67.602c-27.057,5.632-56.33-2.055-77.33-23.055
		C2251.294,1261.416,2244.344,1228.148,2253.617,1198.908"/>
	<path style="fill-rule:evenodd;clip-rule:evenodd;" d="M2654.182,1266.718c-30.638-1.393-60.979,13.932-77.372,42.33
		c-14.85,25.725-14.698,55.985-2.258,80.665l50.531-72.595l-37.602,80.06c27.59-1.568,53.877-16.563,68.727-42.283
		C2672.607,1326.496,2670.707,1292.556,2654.182,1266.718"/>
	<path style="fill-rule:evenodd;clip-rule:evenodd;" d="M3018.212,1328.168c-29.235-9.273-62.51-2.32-85.697,20.868
		c-21,21-28.682,50.272-23.055,77.328l67.602-57.047l-57.043,67.602c27.057,5.627,56.33-2.055,77.33-23.055
		C3020.535,1390.676,3027.485,1357.408,3018.212,1328.168"/>
	<path style="fill-rule:evenodd;clip-rule:evenodd;" d="M2129.602,1519.209c29.235-9.275,62.503-2.32,85.692,20.867
		c21.005,21,28.687,50.273,23.055,77.33l-67.597-57.048l57.042,67.602c-27.057,5.631-56.328-2.055-77.328-23.055
		C2127.277,1581.718,2120.324,1548.448,2129.602,1519.209"/>
	<path style="fill-rule:evenodd;clip-rule:evenodd;" d="M2096.007,1626.723c-46.885-14.873-100.238-3.723-137.42,33.458
		c-33.68,33.675-45.997,80.617-36.973,124.002l108.402-91.475l-91.473,108.402c43.388,9.028,90.327-3.293,124.007-36.968
		C2099.729,1726.956,2110.879,1673.603,2096.007,1626.723"/>
	<path style="fill-rule:evenodd;clip-rule:evenodd;" d="M1890.272,1379.371c46.885-14.872,100.238-3.723,137.42,33.463
		c33.675,33.675,45.997,80.616,36.973,124.001l-108.407-91.475l91.478,108.401c-43.388,9.028-90.33-3.292-124.007-36.973
		C1886.551,1479.609,1875.401,1426.256,1890.272,1379.371"/>
	<path style="fill-rule:evenodd;clip-rule:evenodd;" d="M2191.099,1165.521c-46.885-14.873-100.232-3.723-137.418,33.458
		c-33.675,33.675-45.997,80.616-36.969,124.001l108.402-91.475l-91.473,108.401c43.383,9.028,90.325-3.292,124.002-36.968
		C2194.827,1265.755,2205.972,1212.406,2191.099,1165.521"/>
	<path style="fill-rule:evenodd;clip-rule:evenodd;" d="M1788.198,1089.855c46.885-14.872,100.233-3.723,137.418,33.458
		c33.677,33.675,45.998,80.617,36.968,124.002l-108.4-91.473l91.478,108.402c-43.39,9.028-90.332-3.293-124.007-36.97
		C1784.474,1190.088,1773.326,1136.74,1788.198,1089.855"/>
	<path style="fill-rule:evenodd;clip-rule:evenodd;" d="M2081.214,992.93c-30.642-1.395-60.977,13.937-77.375,42.335
		c-14.85,25.72-14.693,55.983-2.255,80.66l50.533-72.595l-37.607,80.058c27.59-1.563,53.877-16.563,68.727-42.283
		C2099.636,1052.706,2097.741,1018.771,2081.214,992.93"/>
	<path style="fill-rule:evenodd;clip-rule:evenodd;" d="M1519.251,965.778c46.885-14.873,100.238-3.723,137.42,33.464
		c33.675,33.675,45.997,80.617,36.972,124.002l-108.405-91.475l91.478,108.401c-43.388,9.028-90.332-3.293-124.007-36.973
		C1515.528,1066.016,1504.379,1012.663,1519.251,965.778"/>
	<path style="fill-rule:evenodd;clip-rule:evenodd;" d="M1711.214,891.103c30.642-1.393,60.977,13.938,77.375,42.337
		c14.85,25.718,14.693,55.983,2.253,80.66l-50.532-72.597l37.602,80.06c-27.59-1.563-53.877-16.563-68.727-42.283
		C1692.792,950.881,1694.688,916.946,1711.214,891.103"/>
	<path style="fill-rule:evenodd;clip-rule:evenodd;" d="M1349.319,1070.158c29.238-9.273,62.508-2.318,85.695,20.868
		c21,21,28.687,50.273,23.057,77.33l-67.598-57.048l57.043,67.602c-27.057,5.632-56.33-2.055-77.33-23.055
		C1346.999,1132.668,1340.044,1099.398,1349.319,1070.158"/>
	<path style="fill-rule:evenodd;clip-rule:evenodd;" d="M2168.597,981.813c46.88-14.874,100.233-3.723,137.415,33.461
		c33.68,33.677,46.002,80.618,36.972,124.002l-108.4-91.473l91.473,108.401c-43.385,9.028-90.327-3.293-124.002-36.973
		C2164.871,1082.05,2153.726,1028.698,2168.597,981.813"/>
	<path style="fill-rule:evenodd;clip-rule:evenodd;" d="M2566.374,1017.156c-46.885-14.873-100.238-3.723-137.418,33.458
		c-33.682,33.68-46.002,80.616-36.973,124.005l108.402-91.478l-91.475,108.406c43.385,9.023,90.326-3.298,124.002-36.973
		C2570.097,1117.393,2581.242,1064.041,2566.374,1017.156"/>
	<path style="fill-rule:evenodd;clip-rule:evenodd;" d="M2446.029,851.986c-30.643-1.395-60.978,13.932-77.371,42.33
		c-14.854,25.725-14.698,55.985-2.259,80.665l50.532-72.6l-37.602,80.063c27.592-1.568,53.878-16.563,68.727-42.287
		C2464.449,911.758,2462.556,877.823,2446.029,851.986"/>
	<path style="fill-rule:evenodd;clip-rule:evenodd;" d="M1960.228,877.218c-30.643-1.388-60.978,13.938-77.377,42.337
		c-14.848,25.718-14.693,55.983-2.253,80.66l50.532-72.597l-37.605,80.06c27.59-1.563,53.877-16.563,68.73-42.283
		C1978.647,936.996,1976.754,903.061,1960.228,877.218"/>
	<path style="fill-rule:evenodd;clip-rule:evenodd;" d="M2037.027,824.191c30.643-1.388,60.978,13.938,77.377,42.336
		c14.848,25.719,14.693,55.984,2.253,80.659l-50.531-72.595l37.605,80.06c-27.59-1.563-53.877-16.563-68.73-42.283
		C2018.607,883.97,2020.501,850.035,2037.027,824.191"/>
	<path style="fill-rule:evenodd;clip-rule:evenodd;" d="M2735.352,1108.748c-29.24-9.275-62.51-2.32-85.697,20.863
		c-21,21.005-28.682,50.277-23.055,77.328l67.602-57.042l-57.047,67.602c27.057,5.627,56.328-2.055,77.328-23.055
		C2737.67,1171.256,2744.625,1137.986,2735.352,1108.748"/>
	<path style="fill-rule:evenodd;clip-rule:evenodd;" d="M2621.715,844.937c48.042,10.565,88.668,46.895,102.278,97.686
		c12.327,46.002-0.471,92.817-29.98,125.873l-48.143-133.418l25.017,139.617c-42.085-13.877-76.578-48.02-88.903-94.022
		C2568.372,929.881,2585.394,878.102,2621.715,844.937"/>
	<path style="fill-rule:evenodd;clip-rule:evenodd;" d="M2920.425,2854.596v201.667h-49.125v-120.94l-45.104,120.94h-39.642
		l-45.393-121.229v121.229h-49.123v-201.667h58.03l56.594,139.616l56.021-139.616H2920.425z M2537.772,2854.596v120.656
		c0,12.067,2.972,21.355,8.91,27.87c5.933,6.51,14.65,9.76,26.14,9.76c11.49,0,20.302-3.25,26.428-9.76
		c6.128-6.515,9.193-15.803,9.193-27.87v-120.656h49.125v120.368c0,18.005-3.831,33.227-11.49,45.677
		c-7.664,12.448-17.957,21.835-30.883,28.157c-12.925,6.317-27.34,9.477-43.233,9.477c-15.897,0-30.118-3.113-42.662-9.335
		c-12.543-6.222-22.455-15.61-29.73-28.153c-7.28-12.547-10.923-27.817-10.923-45.822v-120.368H2537.772z M2385.807,3058.274
		c-14.745,0-27.96-2.395-39.643-7.18c-11.683-4.787-21.018-11.878-28.01-21.26c-6.993-9.383-10.678-20.683-11.06-33.898h52.285
		c0.765,7.47,3.348,13.167,7.752,17.094c4.408,3.927,10.153,5.886,17.24,5.886c7.275,0,13.025-1.671,17.235-5.021
		c4.213-3.355,6.321-7.998,6.321-13.937c0-4.975-1.678-9.095-5.028-12.35c-3.348-3.255-7.468-5.938-12.348-8.047
		c-4.89-2.107-11.83-4.502-20.83-7.18c-13.025-4.022-23.65-8.042-31.89-12.067c-8.235-4.02-15.316-9.958-21.255-17.812
		c-5.938-7.852-8.905-18.098-8.905-30.742c0-18.765,6.798-33.462,20.395-44.092c13.597-10.63,31.313-15.945,53.145-15.945
		c22.219,0,40.124,5.315,53.72,15.945c13.596,10.63,20.873,25.422,21.836,44.38h-53.15c-0.382-6.51-2.773-11.632-7.18-15.368
		c-4.408-3.732-10.053-5.603-16.952-5.603c-5.933,0-10.725,1.583-14.362,4.743c-3.638,3.162-5.457,7.707-5.457,13.645
		c0,6.51,3.06,11.588,9.188,15.227c6.132,3.637,15.708,7.563,28.729,11.778c13.027,4.402,23.608,8.617,31.743,12.637
		c8.142,4.025,15.18,9.865,21.118,17.528s8.907,17.521,8.907,29.588c0,11.49-2.92,21.932-8.765,31.313
		c-5.838,9.383-14.315,16.852-25.422,22.403C2414.054,3055.497,2400.939,3058.274,2385.807,3058.274z M2209.421,2944.799
		c9.383,0,16.375-2.202,20.971-6.605c4.597-4.403,6.894-10.63,6.894-18.67c0-8.047-2.297-14.273-6.894-18.677
		c-4.596-4.403-11.588-6.603-20.971-6.603h-26.717v50.555H2209.421z M2287.274,2919.524c0,11.683-2.683,22.355-8.045,32.032
		c-5.362,9.665-13.597,17.47-24.703,23.408c-11.112,5.938-24.899,8.906-41.368,8.906h-30.453v72.392h-49.124v-201.667h79.577
		c16.083,0,29.685,2.778,40.792,8.333c11.112,5.552,19.44,13.215,24.992,22.98
		C2284.497,2895.674,2287.274,2906.881,2287.274,2919.524z M2097.958,2854.596v201.667h-49.124v-201.667H2097.958z
		 M2013.499,2854.596v201.667h-49.118v-120.94l-45.105,120.94h-39.647l-45.387-121.229v121.229h-49.125v-201.667h58.03
		l56.588,139.616l56.022-139.616H2013.499z M1678.823,2893.956v40.79h65.788v37.923h-65.788v44.238h74.405v39.355h-123.528v-201.667
		h123.528v39.36H1678.823z M1491.519,2945.375h30.453c9,0,15.752-2.202,20.253-6.61c4.502-4.403,6.752-10.625,6.752-18.67
		c0-7.658-2.25-13.692-6.752-18.1c-4.502-4.403-11.253-6.61-20.253-6.61h-30.453V2945.375z M1545.241,3056.262l-41.94-76.125
		h-11.782v76.125h-49.125v-201.667h82.45c15.898,0,29.448,2.778,40.65,8.333c11.205,5.552,19.582,13.168,25.138,22.838
		c5.552,9.672,8.328,20.443,8.328,32.315c0,13.408-3.783,25.38-11.343,35.915c-7.568,10.532-18.722,18-33.472,22.408l46.54,79.857
		H1545.241z M1311.978,3013.464c16.087,0,28.965-5.367,38.64-16.092c9.667-10.725,14.505-24.898,14.505-42.515
		c0-17.812-4.838-32.032-14.505-42.662c-9.675-10.63-22.553-15.945-38.64-15.945c-16.28,0-29.253,5.268-38.93,15.798
		c-9.67,10.537-14.503,24.803-14.503,42.808c0,17.812,4.833,32.032,14.503,42.662
		C1282.724,3008.144,1295.698,3013.464,1311.978,3013.464z M1311.978,3058.274c-18.96,0-36.345-4.406-52.143-13.213
		s-28.342-21.114-37.635-36.917c-9.283-15.798-13.928-33.562-13.928-53.287c0-19.725,4.645-37.442,13.928-53.15
		c9.293-15.698,21.837-27.958,37.635-36.77c15.798-8.81,33.183-13.213,52.143-13.213c18.958,0,36.34,4.403,52.138,13.213
		c15.803,8.812,28.247,21.072,37.347,36.77c9.098,15.708,13.643,33.425,13.643,53.15c0,19.725-4.592,37.488-13.79,53.287
		c-9.188,15.803-21.638,28.11-37.342,36.917C1348.271,3053.867,1330.936,3058.274,1311.978,3058.274z M2570.314,3099.99h-9.118
		v74.207h11.977v-52.37l42.09,52.37h9.008v-74.207h-11.872v52.795L2570.314,3099.99z M2471.937,3147.802h-31.375l15.69-35.305
		L2471.937,3147.802z M2483.389,3174.197h12.615l-33.288-74.207h-12.932l-33.287,74.207h12.613l6.997-15.585h40.177
		L2483.389,3174.197z M2354.592,3109.42c-7.563-7.492-16.715-11.235-27.458-11.235c-12.16,0-21.698,3.8-28.625,11.397
		c-6.925,7.597-10.388,17.017-10.388,28.252c0,5.093,0.778,9.845,2.328,14.258c1.56,4.417,3.855,8.408,6.893,11.98
		c3.042,3.572,7.125,6.398,12.245,8.482c5.122,2.083,10.975,3.127,17.546,3.127c11.59,0,21.309-4.308,29.155-12.93v-30.43h-31.702
		v10.607h20.675v15.052c-5.23,4.378-11.273,6.572-18.129,6.572c-9.047,0-15.863-2.58-20.461-7.738
		c-4.592-5.16-6.892-11.485-6.892-18.978c-0.072-8.127,2.372-14.948,7.318-20.457c4.945-5.513,11.622-8.273,20.035-8.273
		c3.535,0,7.12,0.69,10.763,2.07c3.637,1.375,6.732,3.335,9.273,5.882L2354.592,3109.42z M2159.536,3137.62
		c0-8.338,2.315-15.122,6.945-20.352s11.112-7.848,19.455-7.848c5.721,0.072,10.616,1.54,14.683,4.403
		c4.059,2.863,6.96,6.34,8.694,10.442c1.73,4.1,2.593,8.55,2.593,13.355c0,7.777-2.187,14.263-6.572,19.455
		c-4.378,5.197-10.918,7.792-19.61,7.792c-4.385,0-8.292-0.795-11.716-2.387c-3.425-1.586-6.165-3.708-8.217-6.358
		c-2.045-2.65-3.585-5.547-4.61-8.693C2160.156,3144.287,2159.607,3141.014,2159.536,3137.62z M2185.936,3098.607
		c-11.168,0-20.32,3.662-27.458,10.975c-7.138,7.313-10.71,16.625-10.71,27.935c0,5.017,0.793,9.77,2.386,14.258
		c1.592,4.488,3.889,8.537,6.892,12.137c3,3.61,6.978,6.487,11.925,8.642c4.947,2.158,10.535,3.235,16.753,3.235
		c6.217,0,11.802-1.043,16.747-3.127c4.952-2.088,8.925-4.933,11.93-8.533c3.005-3.608,5.3-7.69,6.888-12.245
		c1.592-4.563,2.385-9.383,2.385-14.47c0-10.743-3.283-19.882-9.855-27.407C2207.242,3102.48,2197.951,3098.677,2185.936,3098.607z
		 M2036.994,3099.99v74.207h50.99v-11.022h-39.116v-63.185H2036.994z M1965.442,3110.38c-5.228-8.343-14.452-12.51-27.67-12.51
		c-3.533,0-6.927,0.402-10.177,1.219c-3.25,0.808-6.293,2.031-9.118,3.656c-2.825,1.625-5.088,3.85-6.783,6.675
		c-1.697,2.83-2.542,6.08-2.542,9.757c0,3.038,0.543,5.74,1.638,8.107c1.097,2.372,2.477,4.3,4.138,5.783
		c1.658,1.478,3.832,2.753,6.515,3.812c2.688,1.063,5.25,1.877,7.687,2.438c2.438,0.567,5.353,1.063,8.75,1.488
		c5.933,0.775,10.583,2.065,13.942,3.865c3.355,1.803,5.032,4.577,5.032,8.323c0,2.897-0.968,5.32-2.915,7.262
		c-1.942,1.947-4.257,3.27-6.945,3.978c-2.683,0.703-5.65,1.058-8.9,1.058c-10.607,0-18.308-4.063-23.117-12.193l-8.902,5.938
		c6.077,11.238,16.715,16.857,31.908,16.857c5.515,0,10.48-0.729,14.897-2.174c4.418-1.45,8.163-3.94,11.235-7.475
		c3.075-3.533,4.612-7.95,4.612-13.252c0-3.953-0.795-7.37-2.387-10.228c-1.587-2.863-3.902-5.125-6.94-6.788
		c-3.043-1.658-6.113-2.91-9.222-3.762c-3.113-0.85-6.86-1.592-11.24-2.225c-5.864-0.85-10.337-2.017-13.412-3.5
		c-3.072-1.483-4.612-3.85-4.612-7.102c0-3.462,1.592-6.203,4.772-8.215c3.18-2.017,7.313-3.023,12.407-3.023
		c3.883,0.07,7.468,0.832,10.757,2.282c3.288,1.445,5.812,3.443,7.583,5.985L1965.442,3110.38z M1815.334,3110.8
		c4.594,0,8.093,1.36,10.499,4.082c2.4,2.722,3.605,5.92,3.605,9.595c0,3.747-1.205,6.888-3.605,9.435
		c-2.405,2.547-5.938,3.817-10.602,3.817h-22.583V3110.8H1815.334z M1843.534,3172.075l-22.157-24.698
		c6.855-0.992,11.923-3.624,15.212-7.9c3.288-4.275,4.933-9.348,4.933-15.212c0-6.643-2.315-12.35-6.945-17.122
		c-4.63-4.767-11.042-7.153-19.243-7.153c-3.812,0-9.577-0.023-17.281-0.057c-7.7-0.036-13.465-0.052-17.277-0.052v74.315h11.872
		v-25.653h15.69l22.578,25.653h13.895L1843.534,3172.075z M1696.397,3100.095v43.36c0,6.922-1.908,12.278-5.727,16.058
		c-3.812,3.785-8.758,5.495-14.838,5.145c-5.655-0.217-10.215-2.158-13.677-5.835c-3.463-3.675-5.193-8.797-5.193-15.368v-43.36
		h-11.768v43.36c0,10.035,2.915,17.845,8.745,23.428c5.835,5.585,13.13,8.48,21.893,8.693c9.402,0.35,17.135-2.281,23.215-7.9
		c6.08-5.622,9.118-13.692,9.118-24.222v-43.36H1696.397z M1513.006,3137.62c0-8.338,2.315-15.122,6.945-20.352
		c4.63-5.23,11.112-7.848,19.45-7.848c5.727,0.072,10.62,1.54,14.688,4.403c4.058,2.863,6.958,6.34,8.693,10.442
		c1.728,4.1,2.593,8.55,2.593,13.355c0,7.777-2.188,14.263-6.572,19.455c-4.38,5.197-10.918,7.792-19.612,7.792
		c-4.383,0-8.292-0.795-11.717-2.387c-3.43-1.586-6.165-3.708-8.215-6.358c-2.05-2.65-3.587-5.547-4.612-8.693
		C1513.624,3144.287,1513.076,3141.014,1513.006,3137.62z M1539.401,3098.607c-11.163,0-20.315,3.662-27.453,10.975
		c-7.138,7.313-10.71,16.625-10.71,27.935c0,5.017,0.793,9.77,2.385,14.258s3.888,8.537,6.893,12.137
		c3,3.61,6.978,6.487,11.925,8.642c4.945,2.158,10.53,3.235,16.752,3.235c6.218,0,11.802-1.043,16.748-3.127
		c4.952-2.088,8.925-4.933,11.93-8.533c3-3.608,5.3-7.69,6.887-12.245c1.593-4.563,2.387-9.383,2.387-14.47
		c0-10.743-3.288-19.882-9.86-27.407C1560.708,3102.48,1551.414,3098.677,1539.401,3098.607z M1389.831,3099.99h-14.103v0.53
		l28.622,43.252v30.425h11.877v-30.425l29.472-43.252v-0.53h-14.312l-21.098,32.755L1389.831,3099.99z M1128.694,3018.344h64.35
		v37.918h-113.475v-201.667h49.125V3018.344z"/>
</g>
</svg>
